<svg width="50" height="50" viewBox="0 0 50 50" fill="none" xmlns="http://www.w3.org/2000/svg">
<rect width="50" height="50" fill="#979797"/>
<path d="M33.7781 20.5672V18.2836L24.5 23.9254L15.2219 18.2836V20.5672L24.5 26.0746L33.7781 20.5672ZM33.7781 16C34.3781 16 34.909 16.2463 35.3706 16.7388C35.8321 17.2313 36.0399 17.7463 35.9937 18.2836V31.7164C35.9937 32.2985 35.786 32.8134 35.3706 33.2612C34.9551 33.709 34.4243 33.9552 33.7781 34H15.2219C14.6219 34 14.091 33.7537 13.6294 33.2612C13.1679 32.7687 12.9601 32.2537 13.0063 31.7164V18.2836C13.0063 17.7015 13.214 17.1866 13.6294 16.7388C14.0449 16.291 14.5757 16.0448 15.2219 16H33.7781Z" fill="white"/>
</svg>
