<svg width="50" height="50" viewBox="0 0 50 50" fill="none" xmlns="http://www.w3.org/2000/svg">
<rect width="50" height="50" fill="#009BCC"/>
<path d="M30.3333 28.6867C31.7733 28.6867 32.8933 29.8795 32.8933 31.2892C32.8933 32.6988 31.7733 34 30.3333 34C28.8933 34 27.7733 32.753 27.7733 31.2892C27.7733 31.1265 27.7733 30.9096 27.7733 30.6928L21.48 27.006C21 27.4398 20.36 27.7108 19.6667 27.7108C18.2267 27.7108 17 26.4639 17 25C17 23.5361 18.2267 22.2892 19.6667 22.2892C20.36 22.2892 21 22.5602 21.48 22.994L27.7733 19.3072C27.72 19.0904 27.6667 18.8735 27.6667 18.7108C27.6667 17.1928 28.8933 16 30.3333 16C31.7733 16 33 17.1928 33 18.7108C33 20.2289 31.7733 21.4217 30.3333 21.4217C29.64 21.4217 29 21.0964 28.52 20.6627L22.2267 24.3494C22.28 24.5663 22.3333 24.7831 22.3333 25C22.3333 25.2169 22.28 25.4337 22.2267 25.6506L28.5733 29.3374C29.0533 28.9578 29.6933 28.6867 30.3333 28.6867Z" fill="white"/>
</svg>
