<svg width="50" height="50" viewBox="0 0 50 50" fill="none" xmlns="http://www.w3.org/2000/svg">
<rect width="50" height="50" fill="#16A1CD"/>
<path d="M33.3167 18.877C34.3133 18.2869 35.0033 17.4016 35.3867 16.3689C34.3133 16.8852 33.3167 17.2541 32.32 17.4016C31.4767 16.5164 30.3267 16 28.9467 16C27.6433 16 26.4933 16.4426 25.5733 17.3279C24.6533 18.2131 24.1933 19.3197 24.1933 20.5738C24.1933 20.9426 24.27 21.2377 24.3467 21.5328C20.4367 21.459 17.14 19.8361 14.61 16.8115C14.15 17.5492 13.92 18.3607 13.92 19.0984C13.92 20.7213 14.6867 21.9754 16.0667 22.9344C15.2233 22.8607 14.5333 22.6393 13.92 22.3443C13.92 23.4508 14.3033 24.4098 14.9933 25.2951C15.6833 26.1066 16.6033 26.6229 17.6767 26.8443C17.2933 26.918 16.91 26.9918 16.45 26.9918C16.0667 26.9918 15.76 26.9918 15.6067 26.918C15.9133 27.8033 16.45 28.6148 17.2167 29.1311C18.06 29.7213 18.98 30.0164 19.9767 30.0902C18.29 31.3443 16.3733 32.0082 14.15 32.0082C13.6133 32.0082 13.23 32.0082 13 31.9344C15.1467 33.3361 17.6 34 20.2833 34C22.9667 34 25.42 33.3361 27.49 32.0082C29.6367 30.6803 31.17 28.9836 32.1667 27.0656C33.1633 25.1475 33.6233 23.1557 33.6233 21.0902V20.5C34.62 19.8361 35.3867 19.0246 36 18.1393C35.1567 18.5082 34.2367 18.7295 33.3167 18.877Z" fill="white"/>
</svg>
