<svg width="50" height="50" viewBox="0 0 50 50" fill="none" xmlns="http://www.w3.org/2000/svg">
<rect width="50" height="50" fill="#16C83D"/>
<path d="M26.8967 25.8844C26.9958 25.8844 27.359 26.0578 27.9864 26.4046C28.6138 26.7514 28.944 26.9595 28.977 27.0289C28.977 27.0636 28.977 27.1156 28.977 27.185C28.977 27.4624 28.911 27.7572 28.7789 28.0694C28.6798 28.3815 28.4157 28.6416 27.9864 28.8497C27.5571 29.0578 27.1939 29.1618 26.8967 29.1618C26.4675 29.1618 25.7575 28.9191 24.7669 28.4335C24.0405 28.0867 23.4131 27.6358 22.8848 27.0809C22.3564 26.526 21.8116 25.7977 21.2502 24.896C20.7219 24.0983 20.4578 23.3526 20.4578 22.659V22.5549C20.4908 21.8613 20.7714 21.2543 21.2998 20.7341C21.4649 20.5607 21.663 20.474 21.8941 20.474C21.9272 20.474 21.9932 20.474 22.0923 20.474C22.1913 20.474 22.2574 20.4913 22.2904 20.526C22.4225 20.526 22.5215 20.5434 22.5876 20.578C22.6536 20.6127 22.7031 20.7168 22.7362 20.8902C22.8022 21.0636 22.9343 21.4104 23.1324 21.9306C23.3305 22.4509 23.4131 22.7457 23.3801 22.815C23.3801 22.9884 23.248 23.2139 22.9838 23.4913C22.7197 23.7688 22.6041 23.9422 22.6371 24.0116C22.6371 24.0809 22.6536 24.1329 22.6866 24.1676C22.9178 24.7572 23.2975 25.2948 23.8258 25.7803C24.2221 26.1965 24.7669 26.578 25.4603 26.9249C25.5594 26.9942 25.642 27.0289 25.708 27.0289C25.8401 27.0289 26.0382 26.8382 26.3024 26.4566C26.5665 26.0751 26.7646 25.8844 26.8967 25.8844ZM24.6679 32.0751C25.5924 32.0751 26.484 31.8844 27.3425 31.5029C28.201 31.1214 28.944 30.6012 29.5714 29.9422C30.1988 29.2832 30.6941 28.5029 31.0573 27.6012C31.4205 26.6994 31.6021 25.763 31.6021 24.7919C31.6021 23.8208 31.4205 22.8671 31.0573 21.9306C30.6941 20.9942 30.1988 20.2139 29.5714 19.5896C28.944 18.9653 28.201 18.4624 27.3425 18.0809C26.484 17.6994 25.5924 17.4913 24.6679 17.4566C23.7433 17.422 22.8352 17.6301 21.9437 18.0809C21.0521 18.5318 20.3092 19.0347 19.7148 19.5896C19.1204 20.1445 18.6416 20.9249 18.2784 21.9306C17.9152 22.9364 17.7171 23.8902 17.684 24.7919C17.684 26.3526 18.1298 27.7746 19.0214 29.0578L18.1793 31.763L20.854 30.8266C22.0097 31.659 23.281 32.0751 24.6679 32.0751ZM24.6679 16C25.7905 16 26.8637 16.2428 27.8873 16.7283C28.911 17.2139 29.8025 17.8382 30.562 18.6012C31.3215 19.3642 31.8993 20.2832 32.2956 21.3584C32.6918 22.4335 32.923 23.578 32.989 24.7919C33.055 26.0058 32.8239 27.1329 32.2956 28.1734C31.7672 29.2139 31.1894 30.1329 30.562 30.9306C29.9346 31.7283 29.0431 32.3526 27.8873 32.8035C26.7316 33.2543 25.6585 33.4971 24.6679 33.5318C23.215 33.5318 21.8611 33.1676 20.6063 32.4393L16 34L17.4859 29.2659C16.6934 27.9133 16.2972 26.422 16.2972 24.7919C16.2972 23.578 16.5283 22.4335 16.9906 21.3584C17.4529 20.2832 18.0473 19.3642 18.7737 18.6012C19.5002 17.8382 20.3752 17.2139 21.3988 16.7283C22.4225 16.2428 23.5121 16 24.6679 16Z" fill="white"/>
</svg>
